<svg width="560" height="48" viewBox="0 0 560 48" fill="none" xmlns="http://www.w3.org/2000/svg">
<rect width="560" height="48" rx="10" fill="url(#paint0_linear_108_1536)"/>
<rect width="30" height="30" transform="translate(12 9)" fill="#FCEED5"/>
<g clip-path="url(#clip0_108_1536)">
<path d="M39 20.9462C39.0004 21.3527 38.9783 21.7588 38.9338 22.1628C38.4 27.2111 34.531 32.52 27 34.9655C19.4814 32.5324 15.6 27.24 15.0662 22.1628C15.0216 21.7588 14.9995 21.3527 15 20.9462C15 16.9324 17.4497 13.4483 21 13.4483C22.1563 13.446 23.299 13.6975 24.3476 14.1848L30.2979 13.92C31.1641 13.606 32.0787 13.4463 33 13.4483C36.5504 13.4483 39 16.9324 39 20.9462Z" fill="#DF4D60"/>
<path d="M39 20.9462C39.0004 21.3527 38.9783 21.7588 38.9338 22.1628C37.4524 25.9697 32.669 28.7586 27 28.7586C21.331 28.7586 16.5476 25.9697 15.0662 22.1628C15.0216 21.7588 14.9995 21.3527 15 20.9462C15 16.9324 17.4497 13.4483 21 13.4483C22.1563 13.446 23.299 13.6975 24.3476 14.1848L30.2979 13.92C31.1641 13.606 32.0787 13.4463 33 13.4483C36.5504 13.4483 39 16.9324 39 20.9462Z" fill="#FF5364"/>
<path d="M36.2069 28.7835C34.4725 30.9915 32.2312 32.7487 29.6731 33.9062C29.4248 34.0262 29.1724 34.1421 28.9158 34.2455C28.3075 34.5103 27.6662 34.7503 27 34.9655C26.7186 34.8745 26.4413 34.7793 26.1724 34.68V30.4138C25.1374 29.2807 24.5492 27.8102 24.5172 26.2759C24.5398 24.8139 24.9146 23.3788 25.6096 22.0924C25.6565 21.9908 25.659 21.8743 25.6166 21.7707C25.5743 21.6672 25.4908 21.5858 25.3862 21.5462C24.1823 21.1299 22.9192 20.9105 21.6455 20.8966C19.6634 20.2345 19.5269 18.2524 19.5558 17.4828C19.5616 17.2995 19.6883 17.1424 19.8662 17.0979L22.2662 16.5021C22.666 16.4006 23.014 16.1544 23.2427 15.811L24.2151 14.3545C24.2557 14.2952 24.2999 14.2385 24.3475 14.1848C24.553 13.9462 24.8232 13.7723 25.1255 13.6841C26.2787 13.3209 27.4728 13.1027 28.68 13.0345C29.3254 13.0698 29.9202 13.3954 30.2979 13.92C31.1596 15.1032 31.6088 16.5366 31.5765 18C31.5765 19.0593 31.1213 19.6676 30.4965 19.9531V19.9614L30.6165 20.7931L30.7075 21.4303C30.73 21.5943 30.8494 21.7284 31.0096 21.7697C31.705 22.0065 32.3277 22.4184 32.8179 22.9655C33.5834 23.7269 35.1269 26.2138 36.2069 28.7835Z" fill="#35495E"/>
<path d="M30.6166 20.7931C30.2892 20.9191 29.9411 20.9823 29.5903 20.9793C29.1383 20.9763 28.6907 20.8893 28.2703 20.7227C27.7996 20.5322 27.4906 20.0761 27.4883 19.5683V16.7586C27.4883 16.5301 27.6735 16.3448 27.9021 16.3448C28.1306 16.3448 28.3159 16.5301 28.3159 16.7586V19.5683C28.3157 19.7378 28.419 19.8904 28.5766 19.9531C29.1554 20.2023 29.8087 20.2157 30.3972 19.9903C30.4289 19.9764 30.4623 19.9666 30.4966 19.9614L30.6166 20.7931Z" fill="#2C3E50"/>
<path d="M33.6001 29.7186C33.5254 29.9343 33.2915 30.0504 33.0745 29.9793C32.2965 29.6753 31.4181 29.7793 30.7325 30.2565C29.9249 30.8918 29.4623 31.8693 29.4828 32.8965C29.4764 33.2426 29.5412 33.5863 29.6732 33.9062C29.4249 34.0262 29.1725 34.1421 28.9159 34.2455C28.7387 33.8181 28.65 33.3592 28.6552 32.8965C28.6361 31.604 29.2263 30.3777 30.2483 29.5862C31.1511 28.9542 32.3072 28.8072 33.3394 29.1931C33.5551 29.2678 33.6711 29.5017 33.6001 29.7186Z" fill="#2C3E50"/>
<path d="M21.2068 16.7669V18C21.2068 18.2285 21.0216 18.4138 20.793 18.4138H19.6137C19.5635 18.1062 19.5441 17.7943 19.5558 17.4828C19.5616 17.2995 19.6883 17.1424 19.8662 17.0979L21.2068 16.7669Z" fill="#3F5C6C"/>
</g>
<path d="M51.154 19.11L51.63 20.762L53.478 20.244V28H55.41V18.2H53.73L51.154 19.11ZM60.8241 28.196C62.0561 28.196 63.0221 27.734 63.7081 26.81C64.3941 25.872 64.7441 24.64 64.7441 23.1C64.7441 21.56 64.3941 20.328 63.7081 19.404C63.0221 18.466 62.0561 18.004 60.8241 18.004C59.6061 18.004 58.6401 18.466 57.9401 19.404C57.2541 20.328 56.9041 21.56 56.9041 23.1C56.9041 24.64 57.2541 25.872 57.9401 26.81C58.6401 27.734 59.6061 28.196 60.8241 28.196ZM62.8261 23.1C62.8261 25.172 62.1261 26.306 60.8241 26.306C59.5221 26.306 58.8361 25.186 58.8361 23.1C58.8361 21.014 59.5221 19.88 60.8241 19.88C62.1261 19.88 62.8261 21.014 62.8261 23.1ZM69.6424 28.196C70.8744 28.196 71.8404 27.734 72.5264 26.81C73.2124 25.872 73.5624 24.64 73.5624 23.1C73.5624 21.56 73.2124 20.328 72.5264 19.404C71.8404 18.466 70.8744 18.004 69.6424 18.004C68.4244 18.004 67.4584 18.466 66.7584 19.404C66.0724 20.328 65.7224 21.56 65.7224 23.1C65.7224 24.64 66.0724 25.872 66.7584 26.81C67.4584 27.734 68.4244 28.196 69.6424 28.196ZM71.6444 23.1C71.6444 25.172 70.9444 26.306 69.6424 26.306C68.3404 26.306 67.6544 25.186 67.6544 23.1C67.6544 21.014 68.3404 19.88 69.6424 19.88C70.9444 19.88 71.6444 21.014 71.6444 23.1ZM78.4533 21.966C78.9013 21.518 79.1253 20.972 79.1253 20.314C79.1253 19.656 78.9013 19.11 78.4533 18.676C78.0053 18.228 77.4453 18.004 76.7733 18.004C76.1013 18.004 75.5413 18.228 75.0793 18.676C74.6313 19.124 74.4073 19.67 74.4073 20.314C74.4073 20.958 74.6313 21.504 75.0793 21.952C75.5413 22.4 76.1013 22.624 76.7733 22.624C77.4453 22.624 78.0053 22.4 78.4533 21.966ZM76.2413 27.006L82.6393 19.894L81.7853 19.418L75.4013 26.516L76.2413 27.006ZM76.1293 20.958C75.8073 20.608 75.8073 20.02 76.1293 19.684C76.4653 19.348 77.0533 19.348 77.3893 19.684C77.7253 20.02 77.7253 20.608 77.3893 20.958C77.0533 21.294 76.4653 21.294 76.1293 20.958ZM83.1853 27.496C83.6333 27.048 83.8573 26.502 83.8573 25.858C83.8573 25.214 83.6333 24.668 83.1853 24.22C82.7373 23.772 82.1773 23.548 81.5053 23.548C80.8333 23.548 80.2733 23.772 79.8253 24.22C79.3773 24.668 79.1533 25.214 79.1533 25.858C79.1533 26.502 79.3773 27.048 79.8253 27.496C80.2733 27.944 80.8333 28.168 81.5053 28.168C82.1773 28.168 82.7373 27.944 83.1853 27.496ZM82.3733 25.858C82.3733 26.348 82.0093 26.754 81.5053 26.754C81.0013 26.754 80.6373 26.362 80.6373 25.858C80.6373 25.354 81.0013 24.962 81.5053 24.962C82.0093 24.962 82.3733 25.354 82.3733 25.858ZM92.7004 20.804C91.7484 20.804 91.0484 21.126 90.6144 21.784V18.2H88.8084V28H90.6144V24.22C90.6144 23.058 91.2164 22.484 92.1544 22.484C92.9944 22.484 93.5404 22.988 93.5404 23.926V28H95.3464V23.702C95.3464 22.792 95.0944 22.092 94.5904 21.574C94.1004 21.056 93.4704 20.804 92.7004 20.804ZM103.693 25.242C103.735 24.976 103.763 24.738 103.763 24.5C103.763 23.45 103.427 22.582 102.755 21.868C102.097 21.154 101.243 20.804 100.221 20.804C99.1425 20.804 98.2465 21.154 97.5605 21.868C96.8745 22.568 96.5245 23.45 96.5245 24.5C96.5245 25.564 96.8745 26.446 97.5745 27.146C98.2745 27.846 99.1985 28.196 100.361 28.196C101.705 28.196 102.727 27.692 103.413 26.698L101.957 25.858C101.607 26.32 101.075 26.558 100.389 26.558C99.3105 26.558 98.6525 26.124 98.4145 25.242H103.693ZM98.3865 23.842C98.5965 22.946 99.2545 22.428 100.221 22.428C101.047 22.428 101.747 22.89 101.957 23.842H98.3865ZM110.289 21.826C109.743 21.14 108.987 20.804 108.007 20.804C107.069 20.804 106.271 21.168 105.599 21.882C104.941 22.596 104.605 23.464 104.605 24.5C104.605 25.536 104.941 26.418 105.599 27.132C106.271 27.846 107.069 28.196 108.007 28.196C108.987 28.196 109.743 27.86 110.289 27.174V28H112.095V21H110.289V21.826ZM106.957 25.928C106.593 25.55 106.411 25.074 106.411 24.5C106.411 23.926 106.593 23.45 106.957 23.086C107.321 22.708 107.783 22.526 108.343 22.526C108.903 22.526 109.365 22.708 109.729 23.086C110.107 23.45 110.289 23.926 110.289 24.5C110.289 25.074 110.107 25.55 109.729 25.928C109.365 26.292 108.903 26.474 108.343 26.474C107.783 26.474 107.321 26.292 106.957 25.928ZM115.538 28V17.78H113.732V28H115.538ZM121.195 21H119.613V19.04L117.807 19.586V21H116.589V22.736H117.807V25.648C117.807 27.566 118.717 28.28 121.195 28V26.362C120.159 26.418 119.613 26.404 119.613 25.648V22.736H121.195V21ZM126.47 20.804C125.518 20.804 124.818 21.126 124.384 21.784V18.2H122.578V28H124.384V24.22C124.384 23.058 124.986 22.484 125.924 22.484C126.764 22.484 127.31 22.988 127.31 23.926V28H129.116V23.702C129.116 22.792 128.864 22.092 128.36 21.574C127.87 21.056 127.24 20.804 126.47 20.804ZM139.52 21.868C138.988 21.154 138.246 20.804 137.28 20.804C136.3 20.804 135.474 21.154 134.802 21.854C134.13 22.554 133.794 23.394 133.794 24.388C133.794 25.382 134.13 26.236 134.788 26.936C135.46 27.622 136.286 27.972 137.28 27.972C138.246 27.972 138.988 27.622 139.52 26.908V27.664C139.52 28.77 138.82 29.386 137.686 29.386C136.818 29.386 136.202 29.064 135.852 28.406L134.312 29.288C134.928 30.408 136.118 30.996 137.63 30.996C138.638 30.996 139.492 30.716 140.206 30.142C140.92 29.568 141.284 28.742 141.284 27.664V21H139.52V21.868ZM139.52 24.388C139.52 25.508 138.694 26.306 137.56 26.306C136.426 26.306 135.6 25.508 135.6 24.388C135.6 23.842 135.782 23.38 136.146 23.03C136.524 22.666 136.986 22.484 137.56 22.484C138.134 22.484 138.596 22.666 138.96 23.03C139.338 23.38 139.52 23.842 139.52 24.388ZM147.542 24.78C147.542 25.942 146.94 26.516 146.002 26.516C145.162 26.516 144.616 26.012 144.616 25.074V21H142.81V25.298C142.81 26.208 143.062 26.908 143.552 27.426C144.056 27.944 144.686 28.196 145.456 28.196C146.408 28.196 147.108 27.874 147.542 27.216V28H149.348V21H147.542V24.78ZM156.322 21.826C155.776 21.14 155.02 20.804 154.04 20.804C153.102 20.804 152.304 21.168 151.632 21.882C150.974 22.596 150.638 23.464 150.638 24.5C150.638 25.536 150.974 26.418 151.632 27.132C152.304 27.846 153.102 28.196 154.04 28.196C155.02 28.196 155.776 27.86 156.322 27.174V28H158.128V21H156.322V21.826ZM152.99 25.928C152.626 25.55 152.444 25.074 152.444 24.5C152.444 23.926 152.626 23.45 152.99 23.086C153.354 22.708 153.816 22.526 154.376 22.526C154.936 22.526 155.398 22.708 155.762 23.086C156.14 23.45 156.322 23.926 156.322 24.5C156.322 25.074 156.14 25.55 155.762 25.928C155.398 26.292 154.936 26.474 154.376 26.474C153.816 26.474 153.354 26.292 152.99 25.928ZM161.571 21H159.765V28H161.571V24.654C161.571 23.982 161.781 23.506 162.215 23.212C162.649 22.918 163.153 22.806 163.699 22.876V20.86C162.747 20.86 161.907 21.308 161.571 22.204V21ZM169.816 21.826C169.27 21.14 168.514 20.804 167.534 20.804C166.596 20.804 165.798 21.168 165.126 21.882C164.468 22.596 164.132 23.464 164.132 24.5C164.132 25.536 164.468 26.418 165.126 27.132C165.798 27.846 166.596 28.196 167.534 28.196C168.514 28.196 169.27 27.86 169.816 27.174V28H171.622V21H169.816V21.826ZM166.484 25.928C166.12 25.55 165.938 25.074 165.938 24.5C165.938 23.926 166.12 23.45 166.484 23.086C166.848 22.708 167.31 22.526 167.87 22.526C168.43 22.526 168.892 22.708 169.256 23.086C169.634 23.45 169.816 23.926 169.816 24.5C169.816 25.074 169.634 25.55 169.256 25.928C168.892 26.292 168.43 26.474 167.87 26.474C167.31 26.474 166.848 26.292 166.484 25.928ZM177.152 20.804C176.2 20.804 175.5 21.126 175.066 21.784V21H173.26V28H175.066V24.22C175.066 23.058 175.668 22.484 176.606 22.484C177.446 22.484 177.992 22.988 177.992 23.926V28H179.798V23.702C179.798 22.792 179.546 22.092 179.042 21.574C178.552 21.056 177.922 20.804 177.152 20.804ZM185.344 21H183.762V19.04L181.956 19.586V21H180.738V22.736H181.956V25.648C181.956 27.566 182.866 28.28 185.344 28V26.362C184.308 26.418 183.762 26.404 183.762 25.648V22.736H185.344V21ZM193.53 25.242C193.572 24.976 193.6 24.738 193.6 24.5C193.6 23.45 193.264 22.582 192.592 21.868C191.934 21.154 191.08 20.804 190.058 20.804C188.98 20.804 188.084 21.154 187.398 21.868C186.712 22.568 186.362 23.45 186.362 24.5C186.362 25.564 186.712 26.446 187.412 27.146C188.112 27.846 189.036 28.196 190.198 28.196C191.542 28.196 192.564 27.692 193.25 26.698L191.794 25.858C191.444 26.32 190.912 26.558 190.226 26.558C189.148 26.558 188.49 26.124 188.252 25.242H193.53ZM188.224 23.842C188.434 22.946 189.092 22.428 190.058 22.428C190.884 22.428 191.584 22.89 191.794 23.842H188.224ZM201.665 25.242C201.707 24.976 201.735 24.738 201.735 24.5C201.735 23.45 201.399 22.582 200.727 21.868C200.069 21.154 199.215 20.804 198.193 20.804C197.115 20.804 196.219 21.154 195.533 21.868C194.847 22.568 194.497 23.45 194.497 24.5C194.497 25.564 194.847 26.446 195.547 27.146C196.247 27.846 197.171 28.196 198.333 28.196C199.677 28.196 200.699 27.692 201.385 26.698L199.929 25.858C199.579 26.32 199.047 26.558 198.361 26.558C197.283 26.558 196.625 26.124 196.387 25.242H201.665ZM196.359 23.842C196.569 22.946 197.227 22.428 198.193 22.428C199.019 22.428 199.719 22.89 199.929 23.842H196.359ZM210.262 18.004C208.078 17.878 206.972 18.956 206.972 20.93V21H205.964V22.736H206.972V28H208.778V22.736H210.262V21H208.778V20.93C208.778 20.062 209.268 19.67 210.262 19.74V18.004ZM217.054 27.132C217.768 26.418 218.132 25.536 218.132 24.5C218.132 23.464 217.768 22.596 217.054 21.882C216.34 21.168 215.458 20.804 214.422 20.804C213.386 20.804 212.504 21.168 211.79 21.882C211.076 22.596 210.726 23.464 210.726 24.5C210.726 25.536 211.076 26.418 211.79 27.132C212.504 27.846 213.386 28.196 214.422 28.196C215.458 28.196 216.34 27.846 217.054 27.132ZM213.064 25.886C212.714 25.522 212.532 25.06 212.532 24.5C212.532 23.94 212.714 23.478 213.064 23.114C213.428 22.75 213.876 22.568 214.422 22.568C214.968 22.568 215.416 22.75 215.78 23.114C216.144 23.478 216.326 23.94 216.326 24.5C216.326 25.06 216.144 25.522 215.78 25.886C215.416 26.25 214.968 26.432 214.422 26.432C213.876 26.432 213.428 26.25 213.064 25.886ZM221.208 21H219.402V28H221.208V24.654C221.208 23.982 221.418 23.506 221.852 23.212C222.286 22.918 222.79 22.806 223.336 22.876V20.86C222.384 20.86 221.544 21.308 221.208 22.204V21ZM231.966 20.804C230.986 20.804 230.23 21.14 229.698 21.826V21H227.892V30.8H229.698V27.174C230.23 27.86 230.986 28.196 231.966 28.196C232.904 28.196 233.716 27.846 234.374 27.132C235.046 26.418 235.382 25.536 235.382 24.5C235.382 23.464 235.046 22.596 234.374 21.882C233.716 21.168 232.904 20.804 231.966 20.804ZM230.244 25.928C229.88 25.55 229.698 25.074 229.698 24.5C229.698 23.926 229.88 23.45 230.244 23.086C230.608 22.708 231.07 22.526 231.63 22.526C232.19 22.526 232.652 22.708 233.016 23.086C233.394 23.45 233.576 23.926 233.576 24.5C233.576 25.074 233.394 25.55 233.016 25.928C232.652 26.292 232.19 26.474 231.63 26.474C231.07 26.474 230.608 26.292 230.244 25.928ZM243.46 25.242C243.502 24.976 243.53 24.738 243.53 24.5C243.53 23.45 243.194 22.582 242.522 21.868C241.864 21.154 241.01 20.804 239.988 20.804C238.91 20.804 238.014 21.154 237.328 21.868C236.642 22.568 236.292 23.45 236.292 24.5C236.292 25.564 236.642 26.446 237.342 27.146C238.042 27.846 238.966 28.196 240.128 28.196C241.472 28.196 242.494 27.692 243.18 26.698L241.724 25.858C241.374 26.32 240.842 26.558 240.156 26.558C239.078 26.558 238.42 26.124 238.182 25.242H243.46ZM238.154 23.842C238.364 22.946 239.022 22.428 239.988 22.428C240.814 22.428 241.514 22.89 241.724 23.842H238.154ZM248.59 21H247.008V19.04L245.202 19.586V21H243.984V22.736H245.202V25.648C245.202 27.566 246.112 28.28 248.59 28V26.362C247.554 26.418 247.008 26.404 247.008 25.648V22.736H248.59V21ZM251.379 22.988C251.379 22.638 251.729 22.414 252.191 22.414C252.709 22.414 253.087 22.652 253.311 23.128L254.851 22.288C254.305 21.336 253.325 20.804 252.191 20.804C251.435 20.804 250.805 21 250.287 21.406C249.783 21.798 249.531 22.344 249.531 23.03C249.531 24.486 250.833 24.92 251.869 25.186C252.583 25.368 253.143 25.578 253.143 25.956C253.143 26.362 252.821 26.558 252.177 26.558C251.463 26.558 251.015 26.25 250.805 25.648L249.237 26.53C249.755 27.636 250.735 28.196 252.177 28.196C252.975 28.196 253.647 28 254.179 27.622C254.725 27.23 254.991 26.67 254.991 25.956C255.005 24.458 253.675 23.968 252.653 23.758C251.939 23.576 251.379 23.366 251.379 22.988Z" fill="#002A48"/>
<g clip-path="url(#clip1_108_1536)">
<path d="M285.239 18.2317L287.667 17.875C288.611 17.7363 289.332 16.9614 289.403 16.0099L289.665 12.5112C289.693 12.1359 289.294 11.8786 288.964 12.0589L286.746 13.2699C285.988 13.6837 285.455 14.4156 285.295 15.2642L284.816 17.7913C284.768 18.0444 284.984 18.2691 285.239 18.2317Z" fill="#FFE07D"/>
<path d="M288.964 12.0589L287.909 12.635L287.66 15.9653C287.588 16.9169 286.867 17.6917 285.923 17.8304L284.833 17.9905C284.892 18.1488 285.055 18.2587 285.239 18.2316L287.667 17.8749C288.611 17.7362 289.332 16.9613 289.403 16.0098L289.665 12.5111C289.693 12.1359 289.295 11.8786 288.964 12.0589Z" fill="#FFD064"/>
<path d="M280.867 27.9549L282.465 27.6186C282.815 27.6588 283.043 28.0055 282.942 28.3424L282.513 29.7674L286.504 35.3514H289.157L299.19 33.3855L293.505 21.9789C292.658 20.2794 291.658 18.6606 290.517 17.1426C288.778 14.5342 285.257 13.824 282.643 15.5545L280.949 16.6756C280.246 17.1409 279.787 17.8945 279.695 18.7324L279.543 20.1199C279.488 20.6157 279.148 21.0336 278.674 21.1875L275.612 22.1807L274.985 24.6554L275.167 25.0342C275.72 26.1842 276.824 26.9702 278.092 27.1159L279.154 27.238C279.2 27.2433 279.242 27.2675 279.268 27.3059C279.618 27.8257 280.249 28.0848 280.867 27.9549Z" fill="#FFD064"/>
<path d="M293.505 21.9789C292.658 20.2794 291.658 18.6606 290.517 17.1426C289.029 14.9109 286.237 14.069 283.824 14.9561C284.921 15.3568 285.904 16.097 286.601 17.1426C287.742 18.6606 288.742 20.2794 289.589 21.9789L296.009 34.8577L299.19 33.3855L293.505 21.9789Z" fill="#FFC250"/>
<path d="M293.674 25.383L293.719 24.7946C293.786 23.9051 293.419 23.0378 292.735 22.466L290.716 20.7802C290.475 20.5787 290.113 20.7869 290.166 21.0967L290.636 23.8414C290.676 24.0721 290.812 24.2749 291.01 24.3991L293.069 25.6888C293.322 25.847 293.652 25.6802 293.674 25.383Z" fill="#4A80AA"/>
<path d="M292.735 22.4661L290.716 20.7803C290.475 20.5788 290.113 20.7869 290.166 21.0968L290.312 21.9486L291.099 22.6059C291.784 23.1777 292.15 24.0449 292.083 24.9345L292.073 25.0652L293.069 25.6889C293.322 25.847 293.652 25.6802 293.674 25.3831L293.719 24.7946C293.786 23.9051 293.419 23.0379 292.735 22.4661Z" fill="#407093"/>
<path d="M287.388 29.6197C287.684 29.9167 288.047 30.1382 288.446 30.2656C288.501 30.2832 288.545 30.3249 288.566 30.3791L288.737 30.8268C288.855 31.1368 289.172 31.3358 289.499 31.2818C289.516 31.2791 289.533 31.2758 289.549 31.2719L290.451 31.0621C290.814 30.9774 291.085 31.3935 290.861 31.6919L289.93 32.9284C289.401 33.6303 289.134 34.4858 289.157 35.3513H300.163C300.346 35.3513 300.477 35.1728 300.421 34.9983C300.306 34.6426 300.22 34.278 300.163 33.9077L299.671 30.67C299.479 29.4099 298.946 28.2265 298.129 27.2484L296 24.7002C295.293 23.8547 294.317 23.2779 293.236 23.0667L293.122 23.0446C291.709 22.7685 290.246 23.1419 289.137 24.0618L288.66 24.4579C287.969 25.0307 287.657 25.9411 287.851 26.8169L288.008 27.5308L287.09 28.5422L287.125 29.3557L287.388 29.6197Z" fill="#407093"/>
<path d="M281.712 22.1504C282.098 22.1504 282.41 21.8377 282.41 21.4521C282.41 21.0664 282.098 20.7538 281.712 20.7538C281.326 20.7538 281.014 21.0664 281.014 21.4521C281.014 21.8377 281.326 22.1504 281.712 22.1504Z" fill="#707DD3"/>
<path d="M274.697 24.0555L274.985 24.6553L275.137 24.252C275.235 23.9916 275.488 23.8226 275.766 23.8322L276.481 23.8569C276.768 23.8668 276.92 23.5222 276.72 23.317L275.612 22.1806L275.482 22.2228C274.719 22.4701 274.35 23.333 274.697 24.0555Z" fill="#407093"/>
<path d="M276.72 23.317L275.612 22.1806L275.482 22.2228C275.227 22.3054 275.017 22.4568 274.862 22.6483L275.788 23.5977C275.857 23.6684 275.891 23.7525 275.899 23.8368L276.481 23.8569C276.768 23.8668 276.92 23.5222 276.72 23.317Z" fill="#365E7D"/>
<path d="M278.772 24.9745C279.025 24.9745 279.23 24.7694 279.23 24.5165C279.23 24.2636 279.025 24.0586 278.772 24.0586C278.519 24.0586 278.314 24.2636 278.314 24.5165C278.314 24.7694 278.519 24.9745 278.772 24.9745Z" fill="#FFC250"/>
<path d="M280.542 24.9745C280.795 24.9745 281 24.7694 281 24.5165C281 24.2636 280.795 24.0586 280.542 24.0586C280.29 24.0586 280.084 24.2636 280.084 24.5165C280.084 24.7694 280.29 24.9745 280.542 24.9745Z" fill="#FFC250"/>
<path d="M279.798 26.2459C280.051 26.2459 280.256 26.0408 280.256 25.7879C280.256 25.535 280.051 25.33 279.798 25.33C279.545 25.33 279.34 25.535 279.34 25.7879C279.34 26.0408 279.545 26.2459 279.798 26.2459Z" fill="#FFC250"/>
<path d="M290.01 28.1798C290.368 28.1798 290.659 27.8892 290.659 27.5308C290.659 27.1724 290.368 26.8818 290.01 26.8818C289.651 26.8818 289.361 27.1724 289.361 27.5308C289.361 27.8892 289.651 28.1798 290.01 28.1798Z" fill="#95D6A4"/>
<path d="M287.643 28.5013L287.09 28.5423L287.033 28.6047C286.876 28.7773 286.861 29.0359 286.996 29.226L287.125 29.3558L287.703 29.3129C287.928 29.2963 288.096 29.1011 288.079 28.877C288.063 28.6529 287.868 28.4852 287.643 28.5013Z" fill="#E28086"/>
<path d="M287.249 18.6515L288.3 18.7028L290.054 18.4748C290.054 18.4748 290.855 18.5688 291.252 18.1665C291.49 17.9251 291.67 17.6223 291.765 17.2774L292.699 13.8956C292.799 13.5327 292.458 13.2031 292.099 13.3162L289.688 14.0751C288.864 14.3344 288.2 14.9494 287.878 15.7509L286.92 18.1378C286.824 18.3767 286.992 18.639 287.249 18.6515Z" fill="#FFE07D"/>
<path d="M292.099 13.3161L290.685 13.7613C290.685 13.805 290.68 13.85 290.667 13.8955L289.733 17.2774C289.537 17.9872 288.982 18.5185 288.3 18.7028L289.7 18.7712C290.653 18.8178 291.511 18.1971 291.765 17.2774L292.699 13.8955C292.799 13.5327 292.458 13.2031 292.099 13.3161Z" fill="#FFD064"/>
<path d="M290.78 23.9067L290.893 23.9288C291.974 24.14 292.95 24.7168 293.657 25.5623L295.786 28.1105C296.603 29.0886 297.137 30.2721 297.328 31.5322L297.821 34.7699C297.85 34.9655 297.889 35.1594 297.935 35.3515H300.163C300.346 35.3515 300.477 35.173 300.421 34.9984C300.306 34.6427 300.22 34.2781 300.163 33.9079L299.671 30.6702C299.48 29.4101 298.946 28.2266 298.129 27.2485L296 24.7003C295.293 23.8548 294.317 23.278 293.236 23.0668L293.123 23.0447C291.83 22.7924 290.497 23.083 289.431 23.8372C289.877 23.7971 290.331 23.819 290.78 23.9067Z" fill="#365E7D"/>
<path d="M295.077 25.2973C295.077 25.2973 295.664 24.7126 295.692 24.3657C295.735 23.8473 295.631 23.32 295.382 22.8474L294.153 20.5219C294.006 20.244 293.593 20.2995 293.524 20.6063L292.918 23.3241C292.867 23.5525 292.916 23.7917 293.053 23.9819L294.05 25.3718L295.077 25.2973Z" fill="#4A80AA"/>
<path d="M295.382 22.8475L294.153 20.522C294.006 20.244 293.593 20.2995 293.524 20.6063L293.302 21.6013L293.993 22.9078C294.398 23.6758 294.418 24.5882 294.05 25.3719L294.469 25.9563C294.642 26.1984 295.011 26.1693 295.145 25.9028L295.409 25.3753C295.808 24.5776 295.798 23.6362 295.382 22.8475Z" fill="#407093"/>
<path d="M295.891 39C297.65 39 299.076 37.5739 299.076 35.8147C299.076 34.0556 297.65 32.6295 295.891 32.6295C294.132 32.6295 292.706 34.0556 292.706 35.8147C292.706 37.5739 294.132 39 295.891 39Z" fill="#B3E59F"/>
<path d="M297.759 33.2352C298.139 33.76 298.364 34.405 298.364 35.1029C298.364 36.8621 296.938 38.2882 295.179 38.2882C294.481 38.2882 293.836 38.0631 293.311 37.6824C293.89 38.4805 294.83 39 295.891 39C297.65 39 299.076 37.5739 299.076 35.8148C299.076 34.7535 298.557 33.8141 297.759 33.2352Z" fill="#95D6A4"/>
<path d="M295.533 37.0129C295.425 37.0129 295.321 36.97 295.245 36.8937L294.434 36.0827C294.275 35.9237 294.275 35.6661 294.434 35.5071C294.593 35.3483 294.851 35.3483 295.01 35.5071L295.533 36.0304L296.869 34.6943C297.028 34.5355 297.286 34.5355 297.444 34.6943C297.603 34.8532 297.603 35.1109 297.444 35.2698L295.821 36.8937C295.744 36.97 295.641 37.0129 295.533 37.0129Z" fill="#F2FBFF"/>
<path d="M286.781 34.4157C286.911 33.9771 286.582 33.5369 286.125 33.5369C285.675 33.5369 285.348 33.1105 285.464 32.6759L285.507 32.5121C285.623 32.0776 285.296 31.6512 284.846 31.6512H284.755C284.317 31.6512 283.992 31.2466 284.086 30.8195L284.135 30.599C284.229 30.172 283.904 29.7674 283.466 29.7674H282.513L281.759 32.2733C281.539 33.0044 281.427 33.7637 281.427 34.5272V35.0801C281.427 35.23 281.548 35.3515 281.698 35.3515H286.504L286.781 34.4157Z" fill="#F9F6F6"/>
<path d="M293.703 28.9414L295.087 29.132C295.31 29.1626 295.515 29.0071 295.546 28.7844C295.577 28.5618 295.421 28.3564 295.198 28.3257L293.814 28.1351C293.045 28.0291 292.272 28.1587 291.578 28.5102L290.724 28.9472C290.555 29.0339 290.451 29.2127 290.459 29.4028C290.468 29.5928 290.587 29.7617 290.764 29.8331L291.713 30.2166C292.125 30.3788 292.49 30.6453 292.771 30.9872L293.244 31.5637C293.325 31.6618 293.441 31.7125 293.559 31.7125C293.65 31.7125 293.741 31.6823 293.817 31.6202C293.991 31.4777 294.016 31.2213 293.873 31.0474L293.4 30.471C293.213 30.2431 292.997 30.0409 292.76 29.8692C293.083 29.9409 293.394 30.0648 293.679 30.2382L294.893 30.9757C294.959 31.0159 295.032 31.0349 295.104 31.0349C295.241 31.0349 295.375 30.9653 295.452 30.8392C295.569 30.6471 295.508 30.3968 295.316 30.2801L294.102 29.5427C293.627 29.2538 293.096 29.0729 292.547 29.0091C292.922 28.9116 293.313 28.8878 293.703 28.9414Z" fill="#4A80AA"/>
</g>
<path d="M310.154 19.11L310.63 20.762L312.478 20.244V28H314.41V18.2H312.73L310.154 19.11ZM319.824 28.196C321.056 28.196 322.022 27.734 322.708 26.81C323.394 25.872 323.744 24.64 323.744 23.1C323.744 21.56 323.394 20.328 322.708 19.404C322.022 18.466 321.056 18.004 319.824 18.004C318.606 18.004 317.64 18.466 316.94 19.404C316.254 20.328 315.904 21.56 315.904 23.1C315.904 24.64 316.254 25.872 316.94 26.81C317.64 27.734 318.606 28.196 319.824 28.196ZM321.826 23.1C321.826 25.172 321.126 26.306 319.824 26.306C318.522 26.306 317.836 25.186 317.836 23.1C317.836 21.014 318.522 19.88 319.824 19.88C321.126 19.88 321.826 21.014 321.826 23.1ZM328.642 28.196C329.874 28.196 330.84 27.734 331.526 26.81C332.212 25.872 332.562 24.64 332.562 23.1C332.562 21.56 332.212 20.328 331.526 19.404C330.84 18.466 329.874 18.004 328.642 18.004C327.424 18.004 326.458 18.466 325.758 19.404C325.072 20.328 324.722 21.56 324.722 23.1C324.722 24.64 325.072 25.872 325.758 26.81C326.458 27.734 327.424 28.196 328.642 28.196ZM330.644 23.1C330.644 25.172 329.944 26.306 328.642 26.306C327.34 26.306 326.654 25.186 326.654 23.1C326.654 21.014 327.34 19.88 328.642 19.88C329.944 19.88 330.644 21.014 330.644 23.1ZM337.453 21.966C337.901 21.518 338.125 20.972 338.125 20.314C338.125 19.656 337.901 19.11 337.453 18.676C337.005 18.228 336.445 18.004 335.773 18.004C335.101 18.004 334.541 18.228 334.079 18.676C333.631 19.124 333.407 19.67 333.407 20.314C333.407 20.958 333.631 21.504 334.079 21.952C334.541 22.4 335.101 22.624 335.773 22.624C336.445 22.624 337.005 22.4 337.453 21.966ZM335.241 27.006L341.639 19.894L340.785 19.418L334.401 26.516L335.241 27.006ZM335.129 20.958C334.807 20.608 334.807 20.02 335.129 19.684C335.465 19.348 336.053 19.348 336.389 19.684C336.725 20.02 336.725 20.608 336.389 20.958C336.053 21.294 335.465 21.294 335.129 20.958ZM342.185 27.496C342.633 27.048 342.857 26.502 342.857 25.858C342.857 25.214 342.633 24.668 342.185 24.22C341.737 23.772 341.177 23.548 340.505 23.548C339.833 23.548 339.273 23.772 338.825 24.22C338.377 24.668 338.153 25.214 338.153 25.858C338.153 26.502 338.377 27.048 338.825 27.496C339.273 27.944 339.833 28.168 340.505 28.168C341.177 28.168 341.737 27.944 342.185 27.496ZM341.373 25.858C341.373 26.348 341.009 26.754 340.505 26.754C340.001 26.754 339.637 26.362 339.637 25.858C339.637 25.354 340.001 24.962 340.505 24.962C341.009 24.962 341.373 25.354 341.373 25.858ZM353.17 21.868C352.638 21.154 351.896 20.804 350.93 20.804C349.95 20.804 349.124 21.154 348.452 21.854C347.78 22.554 347.444 23.394 347.444 24.388C347.444 25.382 347.78 26.236 348.438 26.936C349.11 27.622 349.936 27.972 350.93 27.972C351.896 27.972 352.638 27.622 353.17 26.908V27.664C353.17 28.77 352.47 29.386 351.336 29.386C350.468 29.386 349.852 29.064 349.502 28.406L347.962 29.288C348.578 30.408 349.768 30.996 351.28 30.996C352.288 30.996 353.142 30.716 353.856 30.142C354.57 29.568 354.934 28.742 354.934 27.664V21H353.17V21.868ZM353.17 24.388C353.17 25.508 352.344 26.306 351.21 26.306C350.076 26.306 349.25 25.508 349.25 24.388C349.25 23.842 349.432 23.38 349.796 23.03C350.174 22.666 350.636 22.484 351.21 22.484C351.784 22.484 352.246 22.666 352.61 23.03C352.988 23.38 353.17 23.842 353.17 24.388ZM361.192 24.78C361.192 25.942 360.59 26.516 359.652 26.516C358.812 26.516 358.266 26.012 358.266 25.074V21H356.46V25.298C356.46 26.208 356.712 26.908 357.202 27.426C357.706 27.944 358.336 28.196 359.106 28.196C360.058 28.196 360.758 27.874 361.192 27.216V28H362.998V21H361.192V24.78ZM369.972 21.826C369.426 21.14 368.67 20.804 367.69 20.804C366.752 20.804 365.954 21.168 365.282 21.882C364.624 22.596 364.288 23.464 364.288 24.5C364.288 25.536 364.624 26.418 365.282 27.132C365.954 27.846 366.752 28.196 367.69 28.196C368.67 28.196 369.426 27.86 369.972 27.174V28H371.778V21H369.972V21.826ZM366.64 25.928C366.276 25.55 366.094 25.074 366.094 24.5C366.094 23.926 366.276 23.45 366.64 23.086C367.004 22.708 367.466 22.526 368.026 22.526C368.586 22.526 369.048 22.708 369.412 23.086C369.79 23.45 369.972 23.926 369.972 24.5C369.972 25.074 369.79 25.55 369.412 25.928C369.048 26.292 368.586 26.474 368.026 26.474C367.466 26.474 367.004 26.292 366.64 25.928ZM375.222 21H373.416V28H375.222V24.654C375.222 23.982 375.432 23.506 375.866 23.212C376.3 22.918 376.804 22.806 377.35 22.876V20.86C376.398 20.86 375.558 21.308 375.222 22.204V21ZM383.466 21.826C382.92 21.14 382.164 20.804 381.184 20.804C380.246 20.804 379.448 21.168 378.776 21.882C378.118 22.596 377.782 23.464 377.782 24.5C377.782 25.536 378.118 26.418 378.776 27.132C379.448 27.846 380.246 28.196 381.184 28.196C382.164 28.196 382.92 27.86 383.466 27.174V28H385.272V21H383.466V21.826ZM380.134 25.928C379.77 25.55 379.588 25.074 379.588 24.5C379.588 23.926 379.77 23.45 380.134 23.086C380.498 22.708 380.96 22.526 381.52 22.526C382.08 22.526 382.542 22.708 382.906 23.086C383.284 23.45 383.466 23.926 383.466 24.5C383.466 25.074 383.284 25.55 382.906 25.928C382.542 26.292 382.08 26.474 381.52 26.474C380.96 26.474 380.498 26.292 380.134 25.928ZM390.802 20.804C389.85 20.804 389.15 21.126 388.716 21.784V21H386.91V28H388.716V24.22C388.716 23.058 389.318 22.484 390.256 22.484C391.096 22.484 391.642 22.988 391.642 23.926V28H393.448V23.702C393.448 22.792 393.196 22.092 392.692 21.574C392.202 21.056 391.572 20.804 390.802 20.804ZM398.994 21H397.412V19.04L395.606 19.586V21H394.388V22.736H395.606V25.648C395.606 27.566 396.516 28.28 398.994 28V26.362C397.958 26.418 397.412 26.404 397.412 25.648V22.736H398.994V21ZM407.181 25.242C407.223 24.976 407.251 24.738 407.251 24.5C407.251 23.45 406.915 22.582 406.243 21.868C405.585 21.154 404.731 20.804 403.709 20.804C402.631 20.804 401.735 21.154 401.049 21.868C400.363 22.568 400.013 23.45 400.013 24.5C400.013 25.564 400.363 26.446 401.063 27.146C401.763 27.846 402.687 28.196 403.849 28.196C405.193 28.196 406.215 27.692 406.901 26.698L405.445 25.858C405.095 26.32 404.563 26.558 403.877 26.558C402.799 26.558 402.141 26.124 401.903 25.242H407.181ZM401.875 23.842C402.085 22.946 402.743 22.428 403.709 22.428C404.535 22.428 405.235 22.89 405.445 23.842H401.875ZM415.316 25.242C415.358 24.976 415.386 24.738 415.386 24.5C415.386 23.45 415.05 22.582 414.378 21.868C413.72 21.154 412.866 20.804 411.844 20.804C410.766 20.804 409.87 21.154 409.184 21.868C408.498 22.568 408.148 23.45 408.148 24.5C408.148 25.564 408.498 26.446 409.198 27.146C409.898 27.846 410.822 28.196 411.984 28.196C413.328 28.196 414.35 27.692 415.036 26.698L413.58 25.858C413.23 26.32 412.698 26.558 412.012 26.558C410.934 26.558 410.276 26.124 410.038 25.242H415.316ZM410.01 23.842C410.22 22.946 410.878 22.428 411.844 22.428C412.67 22.428 413.37 22.89 413.58 23.842H410.01ZM426.11 27.132C426.824 26.418 427.188 25.536 427.188 24.5C427.188 23.464 426.824 22.596 426.11 21.882C425.396 21.168 424.514 20.804 423.478 20.804C422.442 20.804 421.56 21.168 420.846 21.882C420.132 22.596 419.782 23.464 419.782 24.5C419.782 25.536 420.132 26.418 420.846 27.132C421.56 27.846 422.442 28.196 423.478 28.196C424.514 28.196 425.396 27.846 426.11 27.132ZM422.12 25.886C421.77 25.522 421.588 25.06 421.588 24.5C421.588 23.94 421.77 23.478 422.12 23.114C422.484 22.75 422.932 22.568 423.478 22.568C424.024 22.568 424.472 22.75 424.836 23.114C425.2 23.478 425.382 23.94 425.382 24.5C425.382 25.06 425.2 25.522 424.836 25.886C424.472 26.25 424.024 26.432 423.478 26.432C422.932 26.432 422.484 26.25 422.12 25.886ZM432.006 18.004C429.822 17.878 428.716 18.956 428.716 20.93V21H427.708V22.736H428.716V28H430.522V22.736H432.006V21H430.522V20.93C430.522 20.062 431.012 19.67 432.006 19.74V18.004ZM440.408 20.804C439.428 20.804 438.672 21.14 438.14 21.826V21H436.334V30.8H438.14V27.174C438.672 27.86 439.428 28.196 440.408 28.196C441.346 28.196 442.158 27.846 442.816 27.132C443.488 26.418 443.824 25.536 443.824 24.5C443.824 23.464 443.488 22.596 442.816 21.882C442.158 21.168 441.346 20.804 440.408 20.804ZM438.686 25.928C438.322 25.55 438.14 25.074 438.14 24.5C438.14 23.926 438.322 23.45 438.686 23.086C439.05 22.708 439.512 22.526 440.072 22.526C440.632 22.526 441.094 22.708 441.458 23.086C441.836 23.45 442.018 23.926 442.018 24.5C442.018 25.074 441.836 25.55 441.458 25.928C441.094 26.292 440.632 26.474 440.072 26.474C439.512 26.474 439.05 26.292 438.686 25.928ZM451.901 25.242C451.943 24.976 451.971 24.738 451.971 24.5C451.971 23.45 451.635 22.582 450.963 21.868C450.305 21.154 449.451 20.804 448.429 20.804C447.351 20.804 446.455 21.154 445.769 21.868C445.083 22.568 444.733 23.45 444.733 24.5C444.733 25.564 445.083 26.446 445.783 27.146C446.483 27.846 447.407 28.196 448.569 28.196C449.913 28.196 450.935 27.692 451.621 26.698L450.165 25.858C449.815 26.32 449.283 26.558 448.597 26.558C447.519 26.558 446.861 26.124 446.623 25.242H451.901ZM446.595 23.842C446.805 22.946 447.463 22.428 448.429 22.428C449.255 22.428 449.955 22.89 450.165 23.842H446.595ZM457.031 21H455.449V19.04L453.643 19.586V21H452.425V22.736H453.643V25.648C453.643 27.566 454.553 28.28 457.031 28V26.362C455.995 26.418 455.449 26.404 455.449 25.648V22.736H457.031V21ZM462.81 20.384C463.426 20.384 463.93 19.894 463.93 19.306C463.93 18.718 463.426 18.214 462.81 18.214C462.208 18.214 461.704 18.718 461.704 19.306C461.704 19.894 462.208 20.384 462.81 20.384ZM463.72 28V21H461.914V28H463.72ZM470.679 21.826C470.147 21.14 469.391 20.804 468.411 20.804C467.473 20.804 466.661 21.168 465.989 21.882C465.331 22.596 464.995 23.464 464.995 24.5C464.995 25.536 465.331 26.418 465.989 27.132C466.661 27.846 467.473 28.196 468.411 28.196C469.391 28.196 470.147 27.86 470.679 27.174V28H472.485V18.2H470.679V21.826ZM467.347 25.928C466.983 25.55 466.801 25.074 466.801 24.5C466.801 23.926 466.983 23.45 467.347 23.086C467.725 22.708 468.187 22.526 468.747 22.526C469.307 22.526 469.769 22.708 470.133 23.086C470.497 23.45 470.679 23.926 470.679 24.5C470.679 25.074 470.497 25.55 470.133 25.928C469.769 26.292 469.307 26.474 468.747 26.474C468.187 26.474 467.725 26.292 467.347 25.928ZM480.941 25.242C480.983 24.976 481.011 24.738 481.011 24.5C481.011 23.45 480.675 22.582 480.003 21.868C479.345 21.154 478.491 20.804 477.469 20.804C476.391 20.804 475.495 21.154 474.809 21.868C474.123 22.568 473.773 23.45 473.773 24.5C473.773 25.564 474.123 26.446 474.823 27.146C475.523 27.846 476.447 28.196 477.609 28.196C478.953 28.196 479.975 27.692 480.661 26.698L479.205 25.858C478.855 26.32 478.323 26.558 477.637 26.558C476.559 26.558 475.901 26.124 475.663 25.242H480.941ZM475.635 23.842C475.845 22.946 476.503 22.428 477.469 22.428C478.295 22.428 478.995 22.89 479.205 23.842H475.635ZM486.163 20.804C485.211 20.804 484.511 21.126 484.077 21.784V21H482.271V28H484.077V24.22C484.077 23.058 484.679 22.484 485.617 22.484C486.457 22.484 487.003 22.988 487.003 23.926V28H488.809V23.702C488.809 22.792 488.557 22.092 488.053 21.574C487.563 21.056 486.933 20.804 486.163 20.804ZM494.355 21H492.773V19.04L490.967 19.586V21H489.749V22.736H490.967V25.648C490.967 27.566 491.877 28.28 494.355 28V26.362C493.319 26.418 492.773 26.404 492.773 25.648V22.736H494.355V21ZM496.634 20.384C497.25 20.384 497.754 19.894 497.754 19.306C497.754 18.718 497.25 18.214 496.634 18.214C496.032 18.214 495.528 18.718 495.528 19.306C495.528 19.894 496.032 20.384 496.634 20.384ZM497.544 28V21H495.738V28H497.544ZM501.479 21V20.93C501.479 20.034 501.955 19.74 502.963 19.74C503.425 19.74 503.971 19.782 504.601 19.852V18.2C503.999 18.074 503.453 18.004 502.963 18.004C500.765 18.004 499.673 18.984 499.673 20.93V21H498.665V22.736H499.673V28H501.479V22.736H503.537V28H505.343V21H501.479ZM510.322 28.196C511.68 28.196 512.87 27.482 513.486 26.376L511.918 25.48C511.638 26.054 511.036 26.404 510.308 26.404C509.762 26.404 509.314 26.222 508.964 25.872C508.614 25.508 508.432 25.046 508.432 24.5C508.432 23.38 509.23 22.582 510.308 22.582C511.022 22.582 511.624 22.946 511.904 23.52L513.458 22.61C512.884 21.504 511.68 20.804 510.322 20.804C509.272 20.804 508.39 21.154 507.676 21.868C506.976 22.582 506.626 23.45 506.626 24.5C506.626 25.55 506.976 26.418 507.676 27.132C508.39 27.846 509.272 28.196 510.322 28.196ZM519.652 21.826C519.106 21.14 518.35 20.804 517.37 20.804C516.432 20.804 515.634 21.168 514.962 21.882C514.304 22.596 513.968 23.464 513.968 24.5C513.968 25.536 514.304 26.418 514.962 27.132C515.634 27.846 516.432 28.196 517.37 28.196C518.35 28.196 519.106 27.86 519.652 27.174V28H521.458V21H519.652V21.826ZM516.32 25.928C515.956 25.55 515.774 25.074 515.774 24.5C515.774 23.926 515.956 23.45 516.32 23.086C516.684 22.708 517.146 22.526 517.706 22.526C518.266 22.526 518.728 22.708 519.092 23.086C519.47 23.45 519.652 23.926 519.652 24.5C519.652 25.074 519.47 25.55 519.092 25.928C518.728 26.292 518.266 26.474 517.706 26.474C517.146 26.474 516.684 26.292 516.32 25.928ZM527.1 21H525.518V19.04L523.712 19.586V21H522.494V22.736H523.712V25.648C523.712 27.566 524.622 28.28 527.1 28V26.362C526.064 26.418 525.518 26.404 525.518 25.648V22.736H527.1V21ZM529.378 20.384C529.994 20.384 530.498 19.894 530.498 19.306C530.498 18.718 529.994 18.214 529.378 18.214C528.776 18.214 528.272 18.718 528.272 19.306C528.272 19.894 528.776 20.384 529.378 20.384ZM530.288 28V21H528.482V28H530.288ZM537.905 27.132C538.619 26.418 538.983 25.536 538.983 24.5C538.983 23.464 538.619 22.596 537.905 21.882C537.191 21.168 536.309 20.804 535.273 20.804C534.237 20.804 533.355 21.168 532.641 21.882C531.927 22.596 531.577 23.464 531.577 24.5C531.577 25.536 531.927 26.418 532.641 27.132C533.355 27.846 534.237 28.196 535.273 28.196C536.309 28.196 537.191 27.846 537.905 27.132ZM533.915 25.886C533.565 25.522 533.383 25.06 533.383 24.5C533.383 23.94 533.565 23.478 533.915 23.114C534.279 22.75 534.727 22.568 535.273 22.568C535.819 22.568 536.267 22.75 536.631 23.114C536.995 23.478 537.177 23.94 537.177 24.5C537.177 25.06 536.995 25.522 536.631 25.886C536.267 26.25 535.819 26.432 535.273 26.432C534.727 26.432 534.279 26.25 533.915 25.886ZM544.146 20.804C543.194 20.804 542.494 21.126 542.06 21.784V21H540.254V28H542.06V24.22C542.06 23.058 542.662 22.484 543.6 22.484C544.44 22.484 544.986 22.988 544.986 23.926V28H546.792V23.702C546.792 22.792 546.54 22.092 546.036 21.574C545.546 21.056 544.916 20.804 544.146 20.804Z" fill="#002A48"/>
<defs>
<linearGradient id="paint0_linear_108_1536" x1="0" y1="0" x2="88.5083" y2="235.87" gradientUnits="userSpaceOnUse">
<stop offset="0.0616933" stop-color="#FCEED5"/>
<stop offset="0.751415" stop-color="#FCEED5"/>
<stop offset="1" stop-color="#FFE7BA"/>
</linearGradient>
<clipPath id="clip0_108_1536">
<rect width="24" height="24" fill="white" transform="translate(15 12)"/>
</clipPath>
<clipPath id="clip1_108_1536">
<rect width="27" height="27" fill="white" transform="translate(274 12)"/>
</clipPath>
</defs>
</svg>
