<svg width="90" height="38" viewBox="0 0 90 38" fill="none" xmlns="http://www.w3.org/2000/svg">
<path d="M30 13.3372V12.6C30 12.0399 29.9996 11.7599 29.8906 11.546C29.7948 11.3579 29.6425 11.2049 29.4544 11.109C29.2405 11 28.9597 11 28.3996 11H15.5996C15.0396 11 14.7598 11 14.5459 11.109C14.3577 11.2049 14.2049 11.3579 14.109 11.546C14 11.7599 14 12.0399 14 12.6V13.3372C14 13.5818 14 13.7042 14.0276 13.8193C14.0521 13.9213 14.0926 14.0188 14.1475 14.1083C14.2093 14.2092 14.2957 14.2956 14.4686 14.4685L14.4688 14.4686L19.5315 19.5314C19.7044 19.7043 19.7907 19.7908 19.8525 19.8917C19.9073 19.9812 19.9482 20.0787 19.9727 20.1808C20 20.2947 20 20.4156 20 20.6553V20.6627V25.4111C20 26.2683 20 26.697 20.1805 26.9551C20.3382 27.1805 20.5814 27.3311 20.8535 27.3713C21.1651 27.4173 21.5487 27.2256 22.3154 26.8423L23.1154 26.4423C23.4365 26.2817 23.5968 26.2014 23.7141 26.0817C23.8178 25.9758 23.897 25.8481 23.9453 25.708C24 25.5495 24 25.3701 24 25.0111V20.6627C24 20.4181 24 20.2959 24.0276 20.1808C24.0521 20.0787 24.0926 19.9812 24.1475 19.8917C24.2093 19.7908 24.2957 19.7044 24.4685 19.5316L24.4688 19.5314L29.5315 14.4686C29.7044 14.2957 29.7907 14.2092 29.8525 14.1083C29.9073 14.0188 29.9482 13.9213 29.9727 13.8193C30 13.7053 30 13.5843 30 13.3447V13.3372Z" stroke="#002A48" stroke-width="2" stroke-linecap="round" stroke-linejoin="round"/>
<path d="M49.728 11.8H43.04V23H45.248V18.68H49.6V16.568H45.248V13.912H49.728V11.8ZM52.2649 14.296C52.9689 14.296 53.5449 13.736 53.5449 13.064C53.5449 12.392 52.9689 11.816 52.2649 11.816C51.5769 11.816 51.0009 12.392 51.0009 13.064C51.0009 13.736 51.5769 14.296 52.2649 14.296ZM53.3049 23V15H51.2409V23H53.3049ZM57.258 23V11.32H55.194V23H57.258ZM63.7231 15H61.9151V12.76L59.8511 13.384V15H58.4591V16.984H59.8511V20.312C59.8511 22.504 60.8911 23.32 63.7231 23V21.128C62.5391 21.192 61.9151 21.176 61.9151 20.312V16.984H63.7231V15ZM73.0794 19.848C73.1274 19.544 73.1594 19.272 73.1594 19C73.1594 17.8 72.7754 16.808 72.0074 15.992C71.2554 15.176 70.2794 14.776 69.1114 14.776C67.8794 14.776 66.8554 15.176 66.0714 15.992C65.2874 16.792 64.8874 17.8 64.8874 19C64.8874 20.216 65.2874 21.224 66.0874 22.024C66.8874 22.824 67.9434 23.224 69.2714 23.224C70.8074 23.224 71.9754 22.648 72.7594 21.512L71.0954 20.552C70.6954 21.08 70.0874 21.352 69.3034 21.352C68.0714 21.352 67.3194 20.856 67.0474 19.848H73.0794ZM67.0154 18.248C67.2554 17.224 68.0074 16.632 69.1114 16.632C70.0554 16.632 70.8554 17.16 71.0954 18.248H67.0154ZM76.6643 15H74.6003V23H76.6643V19.176C76.6643 18.408 76.9043 17.864 77.4003 17.528C77.8963 17.192 78.4723 17.064 79.0963 17.144V14.84C78.0083 14.84 77.0483 15.352 76.6643 16.376V15Z" fill="#002A48"/>
</svg>
