<svg width="248" height="34" viewBox="0 0 248 34" fill="none" xmlns="http://www.w3.org/2000/svg">
<rect width="248" height="34" rx="8" fill="#FCEED5"/>
<path d="M13.7682 18.1406L15.6666 17.4492C15.7252 17.4258 15.7955 17.4141 15.8658 17.4141H28.0298C28.358 17.4141 28.6158 17.6718 28.6158 18V26.2422C28.6158 27.2148 27.8307 28 26.858 28H15.1392C14.1665 28 13.3814 27.2148 13.3814 26.2422V18.6914C13.3814 18.4453 13.5338 18.2227 13.7682 18.1406Z" fill="#FC1A40"/>
<path d="M13.3814 18.6914V26.2422C13.3814 27.2148 14.1665 28 15.1392 28H20.9986V17.4141H15.8658C15.7955 17.4141 15.7252 17.4258 15.6666 17.4492L13.7682 18.1406C13.5338 18.2227 13.3814 18.4453 13.3814 18.6914Z" fill="#C60034"/>
<path d="M13.5923 11.8198C13.7915 11.0112 14.3892 10.3785 15.1978 10.1206C15.9947 9.87449 16.8502 10.0503 17.4713 10.6128L18.8307 11.8081L19.1002 10.0152C19.2291 9.19488 19.7564 8.50343 20.5415 8.17534C20.6939 8.11671 20.8462 8.06984 20.9986 8.0464C21.6431 7.91749 22.3111 8.05812 22.8502 8.45659C23.565 8.97222 23.9282 9.83941 23.8111 10.7066C23.6822 11.5737 23.0962 12.312 22.2642 12.605L20.9986 13.062L19.44 13.6362C19.4282 13.6362 19.4282 13.6362 19.4282 13.6362L16.7212 14.6323C16.4517 14.7261 16.1705 14.773 15.9009 14.773C15.3266 14.773 14.7642 14.562 14.3189 14.1636C13.6627 13.5776 13.3814 12.6753 13.5923 11.8198Z" fill="#FE9923"/>
<path d="M14.3189 14.1636C14.7642 14.562 15.3267 14.773 15.901 14.773C16.1705 14.773 16.4517 14.7261 16.7213 14.6323L19.4283 13.6363C19.4283 13.6363 19.4283 13.6363 19.44 13.6363L20.9986 13.0621V8.04639C20.8463 8.06986 20.6939 8.1167 20.5416 8.17533C19.7564 8.50342 19.2291 9.19486 19.1002 10.0152L18.8307 11.8081L17.4713 10.6128C16.8502 10.0503 15.9947 9.87447 15.1979 10.1206C14.3893 10.3785 13.7916 11.0112 13.5924 11.8198C13.3814 12.6753 13.6627 13.5777 14.3189 14.1636Z" fill="#FE8821"/>
<path d="M11.3775 17.1445L12.1744 19.3476C12.2682 19.582 12.4908 19.7226 12.7252 19.7226C12.7955 19.7226 12.8658 19.7109 12.9244 19.6875L18.983 17.4844L19.5338 15.668L20.9986 15.9961L22.2876 16.289L28.3463 14.0859C28.651 13.9688 28.8033 13.6289 28.6978 13.3359L27.8892 11.1329C27.7369 10.6876 27.4087 10.3359 26.9869 10.1367C26.565 9.93755 26.0845 9.91408 25.6392 10.0781L20.9986 11.7656L20.6821 11.8828C20.6821 11.8828 19.4165 14.1797 19.3813 14.1797C19.3579 14.1797 18.854 13.8985 18.3618 13.6289C17.8697 13.3593 17.3775 13.0781 17.3775 13.0781L12.4322 14.8828C11.9869 15.0468 11.6354 15.375 11.4362 15.7969C11.2369 16.2187 11.2135 16.6992 11.3775 17.1445Z" fill="#FF3E75"/>
<path d="M11.3775 17.1445L12.1744 19.3476C12.2682 19.582 12.4908 19.7226 12.7252 19.7226C12.7955 19.7226 12.8658 19.7109 12.9244 19.6875L18.983 17.4844L19.5338 15.668L20.9986 15.9961V11.7656L20.6822 11.8828C20.6822 11.8828 19.4166 14.1797 19.3814 14.1797C19.3579 14.1797 18.854 13.8984 18.3618 13.6289C17.8697 13.3593 17.3775 13.0781 17.3775 13.0781L12.4322 14.8828C11.9869 15.0468 11.6354 15.375 11.4362 15.7969C11.2369 16.2187 11.2135 16.6992 11.3775 17.1445Z" fill="#FC1A40"/>
<path d="M22.7564 17.4141V28H19.2408V17.4141H22.7564Z" fill="#FCBF29"/>
<path d="M20.6822 11.8828L20.9986 12.75L22.2877 16.2891L20.9986 16.7579L19.5338 17.2852L18.983 17.4844L17.3775 13.0782L20.6822 11.8828Z" fill="#FCBF29"/>
<path d="M19.2406 17.4141H20.9984V28H19.2406V17.4141Z" fill="#FE9923"/>
<path d="M17.3775 13.0782L18.983 17.4844L19.5338 17.2852L20.9986 16.7579V12.75L20.6822 11.8828L17.3775 13.0782Z" fill="#FE9923"/>
<rect x="40" y="16" width="4" height="4" rx="2" fill="#003459"/>
<path d="M60.762 12.2H54.91V22H56.842V18.22H60.65V16.372H56.842V14.048H60.762V12.2ZM63.8918 15H62.0858V22H63.8918V18.654C63.8918 17.982 64.1018 17.506 64.5358 17.212C64.9698 16.918 65.4738 16.806 66.0198 16.876V14.86C65.0678 14.86 64.2278 15.308 63.8918 16.204V15ZM73.88 19.242C73.922 18.976 73.95 18.738 73.95 18.5C73.95 17.45 73.614 16.582 72.942 15.868C72.284 15.154 71.43 14.804 70.408 14.804C69.33 14.804 68.434 15.154 67.748 15.868C67.062 16.568 66.712 17.45 66.712 18.5C66.712 19.564 67.062 20.446 67.762 21.146C68.462 21.846 69.386 22.196 70.548 22.196C71.892 22.196 72.914 21.692 73.6 20.698L72.144 19.858C71.794 20.32 71.262 20.558 70.576 20.558C69.498 20.558 68.84 20.124 68.602 19.242H73.88ZM68.574 17.842C68.784 16.946 69.442 16.428 70.408 16.428C71.234 16.428 71.934 16.89 72.144 17.842H68.574ZM82.0148 19.242C82.0568 18.976 82.0848 18.738 82.0848 18.5C82.0848 17.45 81.7488 16.582 81.0768 15.868C80.4188 15.154 79.5648 14.804 78.5428 14.804C77.4648 14.804 76.5688 15.154 75.8828 15.868C75.1968 16.568 74.8468 17.45 74.8468 18.5C74.8468 19.564 75.1968 20.446 75.8968 21.146C76.5968 21.846 77.5208 22.196 78.6828 22.196C80.0268 22.196 81.0488 21.692 81.7348 20.698L80.2788 19.858C79.9288 20.32 79.3968 20.558 78.7108 20.558C77.6328 20.558 76.9748 20.124 76.7368 19.242H82.0148ZM76.7088 17.842C76.9188 16.946 77.5768 16.428 78.5428 16.428C79.3688 16.428 80.0688 16.89 80.2788 17.842H76.7088ZM91.5775 22.196C93.3695 22.196 94.9515 21.3 95.7915 19.886L94.1255 18.92C93.6635 19.774 92.6975 20.306 91.5775 20.306C90.6255 20.306 89.8555 20.012 89.2675 19.41C88.6935 18.808 88.3995 18.038 88.3995 17.1C88.3995 16.148 88.6935 15.378 89.2675 14.776C89.8555 14.174 90.6255 13.88 91.5775 13.88C92.6975 13.88 93.6355 14.398 94.1255 15.28L95.7915 14.314C94.9515 12.9 93.3555 12.004 91.5775 12.004C90.1075 12.004 88.8895 12.494 87.9235 13.474C86.9575 14.44 86.4815 15.658 86.4815 17.1C86.4815 18.542 86.9575 19.746 87.9235 20.726C88.8895 21.706 90.1075 22.196 91.5775 22.196ZM102.255 15.826C101.709 15.14 100.953 14.804 99.9734 14.804C99.0354 14.804 98.2374 15.168 97.5654 15.882C96.9074 16.596 96.5714 17.464 96.5714 18.5C96.5714 19.536 96.9074 20.418 97.5654 21.132C98.2374 21.846 99.0354 22.196 99.9734 22.196C100.953 22.196 101.709 21.86 102.255 21.174V22H104.061V15H102.255V15.826ZM98.9234 19.928C98.5594 19.55 98.3774 19.074 98.3774 18.5C98.3774 17.926 98.5594 17.45 98.9234 17.086C99.2874 16.708 99.7494 16.526 100.309 16.526C100.869 16.526 101.331 16.708 101.695 17.086C102.073 17.45 102.255 17.926 102.255 18.5C102.255 19.074 102.073 19.55 101.695 19.928C101.331 20.292 100.869 20.474 100.309 20.474C99.7494 20.474 99.2874 20.292 98.9234 19.928ZM109.703 15H108.121V13.04L106.315 13.586V15H105.097V16.736H106.315V19.648C106.315 21.566 107.225 22.28 109.703 22V20.362C108.667 20.418 108.121 20.404 108.121 19.648V16.736H109.703V15ZM120.522 12.2H114.67V22H116.602V18.22H120.41V16.372H116.602V14.048H120.522V12.2ZM127.81 21.132C128.524 20.418 128.888 19.536 128.888 18.5C128.888 17.464 128.524 16.596 127.81 15.882C127.096 15.168 126.214 14.804 125.178 14.804C124.142 14.804 123.26 15.168 122.546 15.882C121.832 16.596 121.482 17.464 121.482 18.5C121.482 19.536 121.832 20.418 122.546 21.132C123.26 21.846 124.142 22.196 125.178 22.196C126.214 22.196 127.096 21.846 127.81 21.132ZM123.82 19.886C123.47 19.522 123.288 19.06 123.288 18.5C123.288 17.94 123.47 17.478 123.82 17.114C124.184 16.75 124.632 16.568 125.178 16.568C125.724 16.568 126.172 16.75 126.536 17.114C126.9 17.478 127.082 17.94 127.082 18.5C127.082 19.06 126.9 19.522 126.536 19.886C126.172 20.25 125.724 20.432 125.178 20.432C124.632 20.432 124.184 20.25 123.82 19.886ZM136.122 21.132C136.836 20.418 137.2 19.536 137.2 18.5C137.2 17.464 136.836 16.596 136.122 15.882C135.408 15.168 134.526 14.804 133.49 14.804C132.454 14.804 131.572 15.168 130.858 15.882C130.144 16.596 129.794 17.464 129.794 18.5C129.794 19.536 130.144 20.418 130.858 21.132C131.572 21.846 132.454 22.196 133.49 22.196C134.526 22.196 135.408 21.846 136.122 21.132ZM132.132 19.886C131.782 19.522 131.6 19.06 131.6 18.5C131.6 17.94 131.782 17.478 132.132 17.114C132.496 16.75 132.944 16.568 133.49 16.568C134.036 16.568 134.484 16.75 134.848 17.114C135.212 17.478 135.394 17.94 135.394 18.5C135.394 19.06 135.212 19.522 134.848 19.886C134.484 20.25 134.036 20.432 133.49 20.432C132.944 20.432 132.496 20.25 132.132 19.886ZM143.777 15.826C143.245 15.14 142.489 14.804 141.509 14.804C140.571 14.804 139.759 15.168 139.087 15.882C138.429 16.596 138.093 17.464 138.093 18.5C138.093 19.536 138.429 20.418 139.087 21.132C139.759 21.846 140.571 22.196 141.509 22.196C142.489 22.196 143.245 21.86 143.777 21.174V22H145.583V12.2H143.777V15.826ZM140.445 19.928C140.081 19.55 139.899 19.074 139.899 18.5C139.899 17.926 140.081 17.45 140.445 17.086C140.823 16.708 141.285 16.526 141.845 16.526C142.405 16.526 142.867 16.708 143.231 17.086C143.595 17.45 143.777 17.926 143.777 18.5C143.777 19.074 143.595 19.55 143.231 19.928C142.867 20.292 142.405 20.474 141.845 20.474C141.285 20.474 140.823 20.292 140.445 19.928Z" fill="#002A48"/>
</svg>
