<svg width="248" height="34" viewBox="0 0 248 34" fill="none" xmlns="http://www.w3.org/2000/svg">
<rect width="248" height="34" rx="8" fill="#FCEED5"/>
<path d="M13.7682 18.1406L15.6667 17.4492C15.7253 17.4258 15.7956 17.4141 15.8658 17.4141H28.0299C28.3581 17.4141 28.6158 17.6718 28.6158 18V26.2422C28.6158 27.2148 27.8307 28 26.858 28H15.1393C14.1666 28 13.3815 27.2148 13.3815 26.2422V18.6914C13.3815 18.4453 13.5339 18.2227 13.7682 18.1406Z" fill="#FC1A40"/>
<path d="M13.3815 18.6914V26.2422C13.3815 27.2148 14.1666 28 15.1393 28H20.9987V17.4141H15.8658C15.7955 17.4141 15.7252 17.4258 15.6667 17.4492L13.7682 18.1406C13.5339 18.2227 13.3815 18.4453 13.3815 18.6914Z" fill="#C60034"/>
<path d="M13.5925 11.8198C13.7916 11.0112 14.3893 10.3785 15.1979 10.1206C15.9948 9.87449 16.8503 10.0503 17.4714 10.6128L18.8308 11.8081L19.1003 10.0152C19.2292 9.19488 19.7565 8.50343 20.5416 8.17534C20.694 8.11671 20.8463 8.06984 20.9987 8.0464C21.6432 7.91749 22.3112 8.05812 22.8503 8.45659C23.5651 8.97222 23.9284 9.83941 23.8112 10.7066C23.6823 11.5737 23.0963 12.312 22.2643 12.605L20.9987 13.062L19.4401 13.6362C19.4284 13.6362 19.4284 13.6362 19.4284 13.6362L16.7213 14.6323C16.4518 14.7261 16.1706 14.773 15.9011 14.773C15.3268 14.773 14.7643 14.562 14.319 14.1636C13.6628 13.5776 13.3815 12.6753 13.5925 11.8198Z" fill="#FE9923"/>
<path d="M14.319 14.1636C14.7643 14.562 15.3268 14.773 15.901 14.773C16.1705 14.773 16.4518 14.7261 16.7213 14.6323L19.4283 13.6363C19.4283 13.6363 19.4283 13.6363 19.4401 13.6363L20.9987 13.0621V8.04639C20.8463 8.06986 20.694 8.1167 20.5416 8.17533C19.7565 8.50342 19.2291 9.19486 19.1003 10.0152L18.8308 11.8081L17.4714 10.6128C16.8503 10.0503 15.9948 9.87447 15.1979 10.1206C14.3893 10.3785 13.7917 11.0112 13.5924 11.8198C13.3815 12.6753 13.6627 13.5777 14.319 14.1636Z" fill="#FE8821"/>
<path d="M11.3776 17.1445L12.1745 19.3476C12.2682 19.582 12.4909 19.7226 12.7253 19.7226C12.7956 19.7226 12.8659 19.7109 12.9245 19.6875L18.9831 17.4844L19.5338 15.668L20.9987 15.9961L22.2877 16.289L28.3463 14.0859C28.651 13.9688 28.8033 13.6289 28.6979 13.3359L27.8893 11.1329C27.737 10.6876 27.4088 10.3359 26.9869 10.1367C26.565 9.93755 26.0846 9.91408 25.6393 10.0781L20.9986 11.7656L20.6822 11.8828C20.6822 11.8828 19.4166 14.1797 19.3814 14.1797C19.3579 14.1797 18.8541 13.8985 18.3619 13.6289C17.8698 13.3593 17.3776 13.0781 17.3776 13.0781L12.4323 14.8828C11.987 15.0468 11.6354 15.375 11.4363 15.7969C11.237 16.2187 11.2136 16.6992 11.3776 17.1445Z" fill="#FF3E75"/>
<path d="M11.3776 17.1445L12.1744 19.3476C12.2682 19.582 12.4909 19.7226 12.7253 19.7226C12.7956 19.7226 12.8659 19.7109 12.9244 19.6875L18.9831 17.4844L19.5338 15.668L20.9987 15.9961V11.7656L20.6822 11.8828C20.6822 11.8828 19.4166 14.1797 19.3814 14.1797C19.358 14.1797 18.8541 13.8984 18.3619 13.6289C17.8698 13.3593 17.3776 13.0781 17.3776 13.0781L12.4323 14.8828C11.987 15.0468 11.6354 15.375 11.4362 15.7969C11.2369 16.2187 11.2135 16.6992 11.3776 17.1445Z" fill="#FC1A40"/>
<path d="M22.7565 17.4141V28H19.2408V17.4141H22.7565Z" fill="#FCBF29"/>
<path d="M20.6823 11.8828L20.9987 12.75L22.2877 16.2891L20.9987 16.7579L19.5339 17.2852L18.9831 17.4844L17.3776 13.0782L20.6823 11.8828Z" fill="#FCBF29"/>
<path d="M19.2407 17.4141H20.9985V28H19.2407V17.4141Z" fill="#FE9923"/>
<path d="M17.3776 13.0782L18.9831 17.4844L19.5338 17.2852L20.9987 16.7579V12.75L20.6823 11.8828L17.3776 13.0782Z" fill="#FE9923"/>
<rect x="40" y="16" width="4" height="4" rx="2" fill="#003459"/>
<path d="M60.762 12.2H54.91V22H56.842V18.22H60.65V16.372H56.842V14.048H60.762V12.2ZM63.8918 15H62.0858V22H63.8918V18.654C63.8918 17.982 64.1018 17.506 64.5358 17.212C64.9698 16.918 65.4738 16.806 66.0198 16.876V14.86C65.0678 14.86 64.2278 15.308 63.8918 16.204V15ZM73.88 19.242C73.922 18.976 73.95 18.738 73.95 18.5C73.95 17.45 73.614 16.582 72.942 15.868C72.284 15.154 71.43 14.804 70.408 14.804C69.33 14.804 68.434 15.154 67.748 15.868C67.062 16.568 66.712 17.45 66.712 18.5C66.712 19.564 67.062 20.446 67.762 21.146C68.462 21.846 69.386 22.196 70.548 22.196C71.892 22.196 72.914 21.692 73.6 20.698L72.144 19.858C71.794 20.32 71.262 20.558 70.576 20.558C69.498 20.558 68.84 20.124 68.602 19.242H73.88ZM68.574 17.842C68.784 16.946 69.442 16.428 70.408 16.428C71.234 16.428 71.934 16.89 72.144 17.842H68.574ZM82.0148 19.242C82.0568 18.976 82.0848 18.738 82.0848 18.5C82.0848 17.45 81.7488 16.582 81.0768 15.868C80.4188 15.154 79.5648 14.804 78.5428 14.804C77.4648 14.804 76.5688 15.154 75.8828 15.868C75.1968 16.568 74.8468 17.45 74.8468 18.5C74.8468 19.564 75.1968 20.446 75.8968 21.146C76.5968 21.846 77.5208 22.196 78.6828 22.196C80.0268 22.196 81.0488 21.692 81.7348 20.698L80.2788 19.858C79.9288 20.32 79.3968 20.558 78.7108 20.558C77.6328 20.558 76.9748 20.124 76.7368 19.242H82.0148ZM76.7088 17.842C76.9188 16.946 77.5768 16.428 78.5428 16.428C79.3688 16.428 80.0688 16.89 80.2788 17.842H76.7088ZM92.7815 12.2H86.9295V22H88.8615V18.22H92.6695V16.372H88.8615V14.048H92.7815V12.2ZM100.069 21.132C100.783 20.418 101.147 19.536 101.147 18.5C101.147 17.464 100.783 16.596 100.069 15.882C99.3553 15.168 98.4733 14.804 97.4373 14.804C96.4013 14.804 95.5193 15.168 94.8053 15.882C94.0913 16.596 93.7413 17.464 93.7413 18.5C93.7413 19.536 94.0913 20.418 94.8053 21.132C95.5193 21.846 96.4013 22.196 97.4373 22.196C98.4733 22.196 99.3553 21.846 100.069 21.132ZM96.0793 19.886C95.7293 19.522 95.5473 19.06 95.5473 18.5C95.5473 17.94 95.7293 17.478 96.0793 17.114C96.4433 16.75 96.8913 16.568 97.4373 16.568C97.9833 16.568 98.4313 16.75 98.7953 17.114C99.1593 17.478 99.3413 17.94 99.3413 18.5C99.3413 19.06 99.1593 19.522 98.7953 19.886C98.4313 20.25 97.9833 20.432 97.4373 20.432C96.8913 20.432 96.4433 20.25 96.0793 19.886ZM108.382 21.132C109.096 20.418 109.46 19.536 109.46 18.5C109.46 17.464 109.096 16.596 108.382 15.882C107.668 15.168 106.786 14.804 105.75 14.804C104.714 14.804 103.832 15.168 103.118 15.882C102.404 16.596 102.054 17.464 102.054 18.5C102.054 19.536 102.404 20.418 103.118 21.132C103.832 21.846 104.714 22.196 105.75 22.196C106.786 22.196 107.668 21.846 108.382 21.132ZM104.392 19.886C104.042 19.522 103.86 19.06 103.86 18.5C103.86 17.94 104.042 17.478 104.392 17.114C104.756 16.75 105.204 16.568 105.75 16.568C106.296 16.568 106.744 16.75 107.108 17.114C107.472 17.478 107.654 17.94 107.654 18.5C107.654 19.06 107.472 19.522 107.108 19.886C106.744 20.25 106.296 20.432 105.75 20.432C105.204 20.432 104.756 20.25 104.392 19.886ZM116.036 15.826C115.504 15.14 114.748 14.804 113.768 14.804C112.83 14.804 112.018 15.168 111.346 15.882C110.688 16.596 110.352 17.464 110.352 18.5C110.352 19.536 110.688 20.418 111.346 21.132C112.018 21.846 112.83 22.196 113.768 22.196C114.748 22.196 115.504 21.86 116.036 21.174V22H117.842V12.2H116.036V15.826ZM112.704 19.928C112.34 19.55 112.158 19.074 112.158 18.5C112.158 17.926 112.34 17.45 112.704 17.086C113.082 16.708 113.544 16.526 114.104 16.526C114.664 16.526 115.126 16.708 115.49 17.086C115.854 17.45 116.036 17.926 116.036 18.5C116.036 19.074 115.854 19.55 115.49 19.928C115.126 20.292 114.664 20.474 114.104 20.474C113.544 20.474 113.082 20.292 112.704 19.928ZM130.036 20.054C130.428 19.438 130.708 18.752 130.89 17.996L129.266 17.072C129.154 17.716 129 18.262 128.79 18.696L126.69 16.4C126.13 15.798 125.892 15.434 125.892 14.916C125.892 14.314 126.382 13.88 127.054 13.88C127.74 13.88 128.23 14.272 128.496 15.056L130.148 14.104C129.602 12.746 128.426 12.004 127.026 12.004C126.144 12.004 125.402 12.27 124.828 12.802C124.254 13.32 123.96 14.006 123.96 14.832C123.96 15.42 124.114 15.966 124.436 16.47C123.372 17.086 122.798 18.122 122.798 19.284C122.798 20.166 123.12 20.88 123.75 21.412C124.394 21.93 125.22 22.196 126.228 22.196C127.222 22.196 128.104 21.916 128.86 21.356L129.756 22.322L131.296 21.44L130.036 20.054ZM126.354 20.418C125.304 20.418 124.744 19.886 124.744 19.088C124.744 18.5 124.996 18.052 125.514 17.73C125.514 17.744 125.528 17.758 125.542 17.772L127.656 20.068C127.278 20.306 126.844 20.418 126.354 20.418ZM139.344 22.196C140.394 22.196 141.248 21.93 141.906 21.398C142.564 20.866 142.9 20.152 142.9 19.242C142.9 18.682 142.746 18.192 142.536 17.856C142.354 17.52 141.906 17.17 141.612 16.988C141.472 16.89 141.262 16.792 140.996 16.694C140.73 16.582 140.52 16.498 140.366 16.456L139.694 16.232C138.966 16.008 138.476 15.798 138.21 15.616C137.958 15.42 137.832 15.168 137.832 14.86C137.832 14.286 138.322 13.88 139.12 13.88C139.974 13.88 140.604 14.3 140.996 15.14L142.62 14.202C141.948 12.816 140.702 12.004 139.12 12.004C138.238 12.004 137.468 12.27 136.838 12.802C136.208 13.32 135.9 14.034 135.9 14.916C135.9 15.812 136.222 16.484 136.824 16.932C137.44 17.366 137.972 17.576 138.854 17.842C139.652 18.066 140.198 18.276 140.506 18.472C140.814 18.654 140.968 18.92 140.968 19.27C140.968 19.872 140.478 20.306 139.4 20.306C138.28 20.306 137.524 19.802 137.146 18.808L135.494 19.774C136.04 21.272 137.398 22.196 139.344 22.196ZM147.968 14.804C147.016 14.804 146.316 15.126 145.882 15.784V12.2H144.076V22H145.882V18.22C145.882 17.058 146.484 16.484 147.422 16.484C148.262 16.484 148.808 16.988 148.808 17.926V22H150.614V17.702C150.614 16.792 150.362 16.092 149.858 15.574C149.368 15.056 148.738 14.804 147.968 14.804ZM157.476 15.826C156.93 15.14 156.174 14.804 155.194 14.804C154.256 14.804 153.458 15.168 152.786 15.882C152.128 16.596 151.792 17.464 151.792 18.5C151.792 19.536 152.128 20.418 152.786 21.132C153.458 21.846 154.256 22.196 155.194 22.196C156.174 22.196 156.93 21.86 157.476 21.174V22H159.282V15H157.476V15.826ZM154.144 19.928C153.78 19.55 153.598 19.074 153.598 18.5C153.598 17.926 153.78 17.45 154.144 17.086C154.508 16.708 154.97 16.526 155.53 16.526C156.09 16.526 156.552 16.708 156.916 17.086C157.294 17.45 157.476 17.926 157.476 18.5C157.476 19.074 157.294 19.55 156.916 19.928C156.552 20.292 156.09 20.474 155.53 20.474C154.97 20.474 154.508 20.292 154.144 19.928ZM164.476 18.458L167.29 15H165.134L162.726 18.08V12.2H160.92V22H162.726V18.822L165.274 22H167.374L164.476 18.458ZM175.079 19.242C175.121 18.976 175.149 18.738 175.149 18.5C175.149 17.45 174.813 16.582 174.141 15.868C173.483 15.154 172.629 14.804 171.607 14.804C170.529 14.804 169.633 15.154 168.947 15.868C168.261 16.568 167.911 17.45 167.911 18.5C167.911 19.564 168.261 20.446 168.961 21.146C169.661 21.846 170.585 22.196 171.747 22.196C173.091 22.196 174.113 21.692 174.799 20.698L173.343 19.858C172.993 20.32 172.461 20.558 171.775 20.558C170.697 20.558 170.039 20.124 169.801 19.242H175.079ZM169.773 17.842C169.983 16.946 170.641 16.428 171.607 16.428C172.433 16.428 173.133 16.89 173.343 17.842H169.773ZM178.216 15H176.41V22H178.216V18.654C178.216 17.982 178.426 17.506 178.86 17.212C179.294 16.918 179.798 16.806 180.344 16.876V14.86C179.392 14.86 178.552 15.308 178.216 16.204V15Z" fill="#002A48"/>
</svg>
